<svg width="154" height="132" viewBox="0 0 154 132" fill="none" xmlns="http://www.w3.org/2000/svg">
<g filter="url(#filter0_d_4002_58)">
<path fill-rule="evenodd" clip-rule="evenodd" d="M99.5365 49.75C97.9577 49.75 96.5998 50.9054 96.3376 52.4965L95.9571 54.8054C95.8696 55.3363 95.4912 55.828 94.9134 56.109C94.2154 56.4485 93.547 56.8402 92.9131 57.2791C92.3854 57.6445 91.77 57.7339 91.2626 57.5417L89.0921 56.7193C87.613 56.1589 85.9451 56.7597 85.1501 58.1523L83.1865 61.5919C82.3898 62.9875 82.7094 64.7601 83.9353 65.7807L85.7254 67.2711C86.1396 67.6159 86.368 68.1917 86.3206 68.8294C86.2919 69.216 86.2773 69.6063 86.2773 70C86.2773 70.3938 86.2919 70.7843 86.3207 71.171C86.3681 71.8087 86.1396 72.3845 85.7254 72.7294L83.9353 74.2198C82.7094 75.2404 82.3898 77.013 83.1865 78.4087L85.1501 81.8482C85.9451 83.2408 87.613 83.8416 89.0921 83.2812L91.2631 82.4587C91.7705 82.2664 92.3858 82.3558 92.9135 82.7212C93.5473 83.16 94.2155 83.5516 94.9134 83.891C95.4912 84.172 95.8696 84.6637 95.9571 85.1946L96.3376 87.5035C96.5998 89.0946 97.9577 90.25 99.5365 90.25H103.464C105.042 90.25 106.4 89.0946 106.662 87.5035L107.043 85.1946C107.13 84.6637 107.509 84.172 108.087 83.891C108.785 83.5515 109.453 83.1598 110.087 82.7209C110.615 82.3555 111.23 82.2661 111.737 82.4583L113.908 83.2807C115.387 83.8411 117.055 83.2403 117.85 81.8477L119.813 78.4081C120.61 77.0125 120.291 75.2399 119.065 74.2193L117.275 72.7289C116.86 72.3841 116.632 71.8083 116.679 71.1706C116.708 70.784 116.723 70.3937 116.723 70C116.723 69.6062 116.708 69.2157 116.679 68.829C116.632 68.1913 116.86 67.6155 117.275 67.2706L119.065 65.7802C120.291 64.7596 120.61 62.987 119.813 61.5913L117.85 58.1518C117.055 56.7592 115.387 56.1584 113.908 56.7188L111.737 57.5413C111.229 57.7336 110.614 57.6442 110.086 57.2788C109.453 56.84 108.784 56.4484 108.087 56.109C107.509 55.828 107.13 55.3363 107.043 54.8054L106.662 52.4965C106.4 50.9054 105.042 49.75 103.464 49.75H99.5365ZM94.8576 52.2526C95.2372 49.9491 97.2112 48.25 99.5365 48.25H103.464C105.789 48.25 107.763 49.9491 108.142 52.2526L108.523 54.5615C108.527 54.5731 108.321 54.413 108.5 54.5C109 55 110.427 55.6903 110.94 56.0456C111.108 56.1615 111.207 56.1378 111.207 56.1378L111.205 56.1386L113.376 55.3161C115.553 54.4913 117.996 55.3814 119.153 57.4081L121.116 60.8477C122.271 62.8713 121.813 65.4442 120.024 66.933L118.234 68.4234C118.226 68.4345 118.16 68.5181 118.175 68.7178C118.207 69.1414 118.223 69.5691 118.223 70C118.223 70.4308 118.207 70.8582 118.175 71.2817C118.16 71.4814 118.226 71.5644 118.234 71.5756L120.024 73.0665C121.813 74.5553 122.271 77.1282 121.116 79.1518L119.153 82.5913C117.996 84.6181 115.553 85.5081 113.376 84.6834L111.207 83.8614L111.208 83.8619C111.208 83.8619 111.108 83.8381 110.941 83.9541C110.245 84.4362 109.51 84.8667 108.743 85.2399C108.564 85.3269 108.528 85.4264 108.523 85.438L108.142 87.7474C107.763 90.0509 105.789 91.75 103.464 91.75H99.5365C97.2112 91.75 95.2372 90.0509 94.8576 87.7474L94.4771 85.4385C94.4728 85.4269 94.4362 85.3269 94.2574 85.2399C93.4901 84.8668 92.7557 84.4364 92.0596 83.9544C91.8922 83.8385 91.7925 83.8622 91.7925 83.8622L91.7936 83.8617L89.6236 84.6839C87.4468 85.5087 85.0044 84.6186 83.8474 82.5919L81.8839 79.1523C80.7286 77.1287 81.1874 74.5558 82.9756 73.067L84.7657 71.5766C84.7744 71.5655 84.8396 71.4819 84.8248 71.2822C84.7933 70.8585 84.7773 70.4309 84.7773 70C84.7773 69.5692 84.7933 69.1418 84.8248 68.7183C84.8396 68.5186 84.7744 68.4356 84.7656 68.4244M94.8576 52.2526L94.4771 54.5615ZM94.4771 54.5615C94.4728 54.5731 94.4362 54.6731 94.2574 54.7601ZM94.2574 54.7601C93.4899 55.1333 92.7554 55.5638 92.0591 56.0459ZM83.8474 57.4087C85.0044 55.3819 87.4468 54.4918 89.6236 55.3166L91.7932 56.1387L91.7921 56.1381C91.7921 56.1381 91.8917 56.1619 92.0591 56.0459M83.8474 57.4087L81.8839 60.8482ZM81.8839 60.8482C80.7286 62.8718 81.1874 65.4447 82.9756 66.9335ZM82.9756 66.9335L84.7656 68.4244Z" fill="url(#paint0_linear_4002_58)"/>
</g>
<g filter="url(#filter1_d_4002_58)">
<rect x="30" y="20" width="80" height="64" rx="10" fill="#2F8BF8"/>
<rect x="30" y="20" width="80" height="64" rx="10" fill="url(#paint1_radial_4002_58)" fill-opacity="0.6"/>
</g>
<g filter="url(#filter2_di_4002_58)">
<path fill-rule="evenodd" clip-rule="evenodd" d="M40.4816 44.6985C41.2005 43.8598 42.4631 43.7627 43.3017 44.4815L68.6985 66.2502C69.4475 66.8922 70.5527 66.8922 71.3017 66.2502L76.1799 61.7831C77.0186 61.0642 78.2812 61.1614 79 62C79.7188 62.8386 79.6217 64.1012 78.7831 64.8201L73.9048 69.2872C71.6579 71.2131 68.3423 71.2131 66.0953 69.2872L40.6986 47.5185C39.8599 46.7997 39.7628 45.5371 40.4816 44.6985Z" fill="url(#paint2_radial_4002_58)" fill-opacity="0.75" shape-rendering="crispEdges"/>
</g>
<g filter="url(#filter3_d_4002_58)">
<path fill-rule="evenodd" clip-rule="evenodd" d="M99.5365 49C97.5844 49 95.9185 50.4272 95.5976 52.3745L95.2171 54.6834C95.1742 54.9438 94.9736 55.2457 94.5854 55.4345C93.8526 55.7909 93.1512 56.202 92.4861 56.6625C92.1316 56.908 91.7731 56.933 91.5284 56.8403L89.3578 56.0179C87.5299 55.3254 85.4748 56.0708 84.4987 57.7805L82.5352 61.22C81.5592 62.9297 81.9484 65.1024 83.4555 66.3571L85.2455 67.8475C85.447 68.0152 85.6049 68.3412 85.5727 68.7739C85.5426 69.1789 85.5273 69.5878 85.5273 70C85.5273 70.4124 85.5426 70.8214 85.5727 71.2266C85.6049 71.6593 85.4471 71.9852 85.2455 72.153L83.4555 73.6434C81.9484 74.8981 81.5592 77.0708 82.5352 78.7805L84.4987 82.22C85.4748 83.9297 87.5299 84.6751 89.3578 83.9826L91.5289 83.16C91.7736 83.0673 92.132 83.0923 92.4866 83.3378C93.1515 83.7982 93.8528 84.2092 94.5854 84.5655C94.9736 84.7543 95.1742 85.0562 95.2171 85.3166L95.5976 87.6255C95.9185 89.5728 97.5844 91 99.5365 91H103.464C105.416 91 107.081 89.5728 107.402 87.6255L107.783 85.3166C107.826 85.0562 108.026 84.7543 108.415 84.5655C109.147 84.2091 109.849 83.798 110.514 83.3375C110.868 83.092 111.227 83.067 111.472 83.1597L113.642 83.9821C115.47 84.6746 117.525 83.9292 118.501 82.2195L120.465 78.78C121.441 77.0703 121.052 74.8976 119.545 73.6429L117.754 72.1525C117.553 71.9848 117.395 71.6588 117.427 71.2261C117.457 70.8211 117.473 70.4122 117.473 70C117.473 69.5876 117.457 69.1786 117.427 68.7734C117.395 68.3407 117.553 68.0148 117.754 67.847L119.545 66.3566C121.052 65.1019 121.441 62.9292 120.465 61.2195L118.501 57.78C117.525 56.0703 115.47 55.3248 113.642 56.0174L111.471 56.84C111.226 56.9327 110.868 56.9077 110.513 56.6622C109.849 56.2018 109.147 55.7908 108.415 55.4345C108.026 55.2457 107.826 54.9438 107.783 54.6834L107.402 52.3745C107.081 50.4272 105.416 49 103.464 49H99.5365ZM101.5 78.0769C105.911 78.0769 109.487 74.4608 109.487 70C109.487 65.5392 105.911 61.9231 101.5 61.9231C97.0895 61.9231 93.5139 65.5392 93.5139 70C93.5139 74.4608 97.0895 78.0769 101.5 78.0769Z" fill="url(#paint3_radial_4002_58)"/>
</g>
<path fill-rule="evenodd" clip-rule="evenodd" d="M62 51H68.3537V46.7703L70.673 44.4934L73.9743 51H81L74.8041 40.4654L80.6334 34.8276H72.9968L68.3537 40.1769V25H62V51Z" fill="url(#paint4_radial_4002_58)"/>
<defs>
<filter id="filter0_d_4002_58" x="53.25" y="28.25" width="100.5" height="103.5" filterUnits="userSpaceOnUse" color-interpolation-filters="sRGB">
<feFlood flood-opacity="0" result="BackgroundImageFix"/>
<feColorMatrix in="SourceAlpha" type="matrix" values="0 0 0 0 0 0 0 0 0 0 0 0 0 0 0 0 0 0 127 0" result="hardAlpha"/>
<feOffset dx="2" dy="10"/>
<feGaussianBlur stdDeviation="15"/>
<feComposite in2="hardAlpha" operator="out"/>
<feColorMatrix type="matrix" values="0 0 0 0 0.184314 0 0 0 0 0.545098 0 0 0 0 0.972549 0 0 0 0.25 0"/>
<feBlend mode="normal" in2="BackgroundImageFix" result="effect1_dropShadow_4002_58"/>
<feBlend mode="normal" in="SourceGraphic" in2="effect1_dropShadow_4002_58" result="shape"/>
</filter>
<filter id="filter1_d_4002_58" x="0" y="0" width="140" height="124" filterUnits="userSpaceOnUse" color-interpolation-filters="sRGB">
<feFlood flood-opacity="0" result="BackgroundImageFix"/>
<feColorMatrix in="SourceAlpha" type="matrix" values="0 0 0 0 0 0 0 0 0 0 0 0 0 0 0 0 0 0 127 0" result="hardAlpha"/>
<feOffset dy="10"/>
<feGaussianBlur stdDeviation="15"/>
<feComposite in2="hardAlpha" operator="out"/>
<feColorMatrix type="matrix" values="0 0 0 0 0.184314 0 0 0 0 0.545098 0 0 0 0 0.972549 0 0 0 0.25 0"/>
<feBlend mode="normal" in2="BackgroundImageFix" result="effect1_dropShadow_4002_58"/>
<feBlend mode="normal" in="SourceGraphic" in2="effect1_dropShadow_4002_58" result="shape"/>
</filter>
<filter id="filter2_di_4002_58" x="25.0001" y="39" width="69.4814" height="56.7317" filterUnits="userSpaceOnUse" color-interpolation-filters="sRGB">
<feFlood flood-opacity="0" result="BackgroundImageFix"/>
<feColorMatrix in="SourceAlpha" type="matrix" values="0 0 0 0 0 0 0 0 0 0 0 0 0 0 0 0 0 0 127 0" result="hardAlpha"/>
<feOffset dy="10"/>
<feGaussianBlur stdDeviation="7.5"/>
<feComposite in2="hardAlpha" operator="out"/>
<feColorMatrix type="matrix" values="0 0 0 0 0 0 0 0 0 0.392776 0 0 0 0 0.859554 0 0 0 1 0"/>
<feBlend mode="normal" in2="BackgroundImageFix" result="effect1_dropShadow_4002_58"/>
<feBlend mode="normal" in="SourceGraphic" in2="effect1_dropShadow_4002_58" result="shape"/>
<feColorMatrix in="SourceAlpha" type="matrix" values="0 0 0 0 0 0 0 0 0 0 0 0 0 0 0 0 0 0 127 0" result="hardAlpha"/>
<feOffset dy="2"/>
<feGaussianBlur stdDeviation="1"/>
<feComposite in2="hardAlpha" operator="arithmetic" k2="-1" k3="1"/>
<feColorMatrix type="matrix" values="0 0 0 0 1 0 0 0 0 1 0 0 0 0 1 0 0 0 0.25 0"/>
<feBlend mode="normal" in2="shape" result="effect2_innerShadow_4002_58"/>
</filter>
<filter id="filter3_d_4002_58" x="54" y="29" width="99" height="102" filterUnits="userSpaceOnUse" color-interpolation-filters="sRGB">
<feFlood flood-opacity="0" result="BackgroundImageFix"/>
<feColorMatrix in="SourceAlpha" type="matrix" values="0 0 0 0 0 0 0 0 0 0 0 0 0 0 0 0 0 0 127 0" result="hardAlpha"/>
<feOffset dx="2" dy="10"/>
<feGaussianBlur stdDeviation="15"/>
<feComposite in2="hardAlpha" operator="out"/>
<feColorMatrix type="matrix" values="0 0 0 0 0.184314 0 0 0 0 0.545098 0 0 0 0 0.972549 0 0 0 0.25 0"/>
<feBlend mode="normal" in2="BackgroundImageFix" result="effect1_dropShadow_4002_58"/>
<feBlend mode="normal" in="SourceGraphic" in2="effect1_dropShadow_4002_58" result="shape"/>
</filter>
<linearGradient id="paint0_linear_4002_58" x1="100.593" y1="49.913" x2="100.593" y2="91" gradientUnits="userSpaceOnUse">
<stop stop-color="#5EA5FA"/>
<stop offset="1" stop-color="#3A8FF5"/>
</linearGradient>
<radialGradient id="paint1_radial_4002_58" cx="0" cy="0" r="1" gradientUnits="userSpaceOnUse" gradientTransform="translate(53.392 26.9048) rotate(51.0214) scale(73.4456 78.7296)">
<stop stop-color="white"/>
<stop offset="1" stop-color="white" stop-opacity="0"/>
</radialGradient>
<radialGradient id="paint2_radial_4002_58" cx="0" cy="0" r="1" gradientUnits="userSpaceOnUse" gradientTransform="translate(70.0001 44) rotate(90) scale(26.7317 140.795)">
<stop stop-color="white"/>
<stop offset="1" stop-color="white" stop-opacity="0.5"/>
</radialGradient>
<radialGradient id="paint3_radial_4002_58" cx="0" cy="0" r="1" gradientUnits="userSpaceOnUse" gradientTransform="translate(101.5 70) rotate(90) scale(21 19.5)">
<stop offset="0.49" stop-color="white"/>
<stop offset="1" stop-color="#C6E0FF"/>
</radialGradient>
<radialGradient id="paint4_radial_4002_58" cx="0" cy="0" r="1" gradientUnits="userSpaceOnUse" gradientTransform="translate(71.5 38) rotate(90) scale(13 9.5)">
<stop stop-color="white"/>
<stop offset="1" stop-color="#CCE2FB"/>
</radialGradient>
</defs>
</svg>
